<?xml version="1.0" encoding="utf-8"?>
<!-- Generator: Adobe Illustrator 23.0.3, SVG Export Plug-In . SVG Version: 6.00 Build 0)  -->
<svg version="1.1" id="Capa_1" xmlns="http://www.w3.org/2000/svg" xmlns:xlink="http://www.w3.org/1999/xlink" x="0px" y="0px"
	 viewBox="0 0 1200 1200" enable-background="new 0 0 1200 1200" xml:space="preserve">
<g>
	<path fill="#D43941" d="M940.733,890.885c-11.29,25.955-34.667,37.99-57.551,52.367c-24.213,15.211-48.574,30.166-73.174,44.746
		c-64.239,38.073-129.496,74.403-193.568,112.759c-25.17,15.068-50.217,30.302-74.555,46.677
		c-21.232,4.374-39.528,3.26-59.959-4.123c-13.733-4.963-28.092-9.259-40.055-17.892c-29.386-21.207-41.469-56.006-42.713-90.843
		c-46.996-227.757-91.549-455.913-138.537-683.594c-9.359-48.241,31.653-88.683,65.984-115.393
		c11.919-9.274,23.931-18.431,35.896-27.646c31.236-24.056,62.472-48.112,93.708-72.167c25.817-19.882,51.634-39.765,77.452-59.647
		c11.706-9.014,23.398-18.676,37.547-23.563c6.677-2.305,43.514-7.663,36.817,10.357c-0.734,1.976-2.363,3.869-4.375,5.657
		c19.606,8.444,50.304,34.475,63.995,46.09c0.678,0.575,1.312,1.112,1.898,1.608L687,108.01l1.626,0.421
		c21.274,5.498,55.048,27.367,82.982,53.575c1.353-0.598,2.707-1.197,4.059-1.796c40.157,0.324,42.393,53.77,47.748,83.322
		c5.094,28.111,10.189,56.222,15.284,84.334c8.764,48.362,17.53,96.723,26.295,145.085c5.362,29.586,10.724,59.173,16.086,88.76
		c11.439,63.118,22.877,126.236,34.316,189.354c8.255,45.551,16.521,91.101,24.765,136.654
		C940.352,888.774,940.543,889.829,940.733,890.885z"/>
	<path fill="#FFE8B8" d="M668.141,127.022l19.75-9.353c19.029,5.555,49.239,25.174,74.513,48.244
		c-72.541,32.096-145.084,64.188-217.626,96.283c-58.131,25.719-116.25,51.464-174.346,77.266
		c-12.227,5.431-24.5,12.068-37.749,14.482c-22.326,4.068-40.444-12.953-32.522-35.634c8.099-23.185,32.784-38.838,51.222-53.649
		c70.408-56.561,141.92-111.78,213.419-166.952c8.689-6.705,17.375-13.415,26.067-20.115c1.125-0.868,2.545-1.82,4.08-2.838
		c0.443,0.357,0.954,0.645,1.53,0.824c17.27,5.345,52.072,34.87,65.176,45.988c1.702,1.445,3.124,2.652,4.216,3.56L668.141,127.022z
		"/>
	<path fill="#C02127" d="M869.271,551.301l61.334,338.427c-11.581,25.153-41.254,36.79-63.779,50.313
		c-57.768,34.68-117.162,66.595-176.23,98.98c-50.759,27.83-102.728,54.787-151.293,86.378
		c29.306-45.323,71.803-79.642,115.781-109.943c73.441-50.602,158.252-96.413,200.861-178.768
		c22.39-43.276,25.475-90.97,22.209-138.811C874.819,649.009,868.097,600.408,869.271,551.301"/>
	<path fill="#FFD385" d="M727.91,139.125c11.388,7.789,23.142,17.053,33.986,26.951l-314.406,139.1l-81.636,36.257
		c-6.824,3.001-13.578,6.188-20.251,8.732c-6.682,2.575-13.48,4.441-20.092,4.713c-0.439,0.018-0.876,0.027-1.312,0.027
		c-4.835,0-9.441-1.121-13.565-3.293c0.924-8.261,17.145-20.096,22.965-22.781C460.775,270.315,691.799,156.842,727.91,139.125
		 M594.244,74.764l-2.736,2.105l-35.345,27.275c-47.094,36.419-94.112,72.938-140.935,109.686
		c-23.409,18.377-46.772,36.815-69.913,55.466l-7,5.723c9.198-6.296,18.395-12.59,27.594-18.894
		c52.047-35.665,104.125-71.329,156.202-106.994c29.498-20.198,58.997-40.397,88.494-60.595c1.33-0.921,2.695-1.913,4.017-2.976
		c-7.063-4.629-13.606-8.256-18.653-9.818C595.308,75.538,594.727,75.198,594.244,74.764"/>
	<path fill="#FFFFFF" d="M530.156,582.017c-38.152-15.867-56.682-52.686-61.918-91.875c-5.197-38.888,6.485-87.628,43.79-107.266
		c41.613-19.265,88.509-6.89,108.257,35.948c16.402,35.581,15.158,81.66,0.035,117.51
		C604.893,572.905,570.018,598.595,530.156,582.017z M765.742,378.855c-3.962-23.226-23.036-65.455-52.923-59.877
		c-25.467,5.209-38.295,38.209-42.901,60.628c-5.268,25.643-2.53,55.654,16.22,75.473c17.342,18.33,47.484,21.73,64.05,0.608
		C766.283,435.167,770.01,403.879,765.742,378.855z M776.864,638.672c-0.783-6.168-2.806-12.367-5.025-18.404
		c-11.192,12.955-23.82,24.669-37.656,34.85c2.513,6.917,8.582,12.595,15.761,14.194c8.745,1.991,18.534-2.088,23.33-9.658
		C776.668,654.302,777.941,646.829,776.864,638.672z M719.5,665.167c-9.658,6.004-19.773,11.29-30.28,15.728
		c-6.591,2.774-13.313,5.189-20.133,7.309c2.415,5.874,5.286,11.878,9.235,16.837c5.286,6.624,12.367,10.67,18.926,10.8
		c10.963,0.196,19.774-9.92,22.645-19.546C722.926,686.214,721.654,675.218,719.5,665.167z M652.217,692.708
		c-17.392,3.948-35.241,5.873-53.09,5.71c1.599,10.54,6.885,19.872,14.455,25.126c9.398,6.461,22.58,6.101,30.021-0.816
		c5.057-4.732,7.081-11.617,7.929-16.511C652.249,701.876,652.315,697.308,652.217,692.708z"/>
	<path fill="#031A2D" d="M332.017,300.971l276.128-203.93c2.059-1.52,4.955-1.083,6.475,0.973c1.52,2.057,1.083,4.955-0.972,6.473
		l-0.045,0.032L335.178,305.302c-1.201,0.867-2.877,0.594-3.744-0.607C330.577,303.503,330.838,301.843,332.017,300.971z
		 M354.218,325.433c0.679,1.569,2.498,2.29,4.069,1.611c62.208-26.925,123.935-54.85,185.719-82.629
		c61.778-27.776,123.501-55.699,185.607-82.578l0.045-0.019c2.339-1.034,3.397-3.766,2.364-6.105
		c-1.032-2.339-3.767-3.397-6.105-2.364c-62.026,27.403-123.533,55.792-185.107,84.036c-61.571,28.242-123.074,56.63-184.995,83.986
		C354.263,322.057,353.542,323.873,354.218,325.433z M370.619,388.952c-2.498,0.532-4.095,2.991-3.563,5.492l140.31,659.22
		l0.01,0.04c0.79,3.61,4.359,5.895,7.97,5.103c3.61-0.792,5.895-4.359,5.102-7.969l-144.341-658.35
		C375.562,390.004,373.111,388.422,370.619,388.952z M662.425,128.74c-0.672-1.082-2.094-1.415-3.177-0.744
		c-62.992,39.046-127.902,74.87-192.984,110.416l-0.086,0.048c-2.218,1.271-2.986,4.101-1.714,6.319
		c1.275,2.218,4.104,2.986,6.322,1.713c64.352-36.913,128.638-74.161,190.935-114.601
		C662.769,131.208,663.087,129.807,662.425,128.74z M357.988,304.864c0.66,1.158,2.135,1.563,3.295,0.902l83.548-47.641l0.076-0.045
		c1.692-1.02,2.237-3.22,1.217-4.914c-1.02-1.694-3.222-2.239-4.914-1.217l-82.372,49.648
		C357.72,302.273,357.338,303.721,357.988,304.864z M718.075,132.635c2.215-1.275,2.979-4.106,1.705-6.322
		c-1.275-2.216-4.104-2.981-6.322-1.706l-74.553,42.867c-1.421,0.819-1.953,2.623-1.182,4.085c0.787,1.496,2.642,2.07,4.139,1.279
		l76.063-40.122L718.075,132.635z M834.699,552.836c-0.468,1.737-2.189,2.807-3.926,2.529c-6.063-0.994-12.005-2.901-17.579-5.741
		c-7.635,21.392-18.682,41.506-32.429,59.621c0.327,0.445,0.621,0.923,0.827,1.465c3.161,8.347,6.434,16.978,7.664,26.345
		c1.029,7.815,0.924,19.239-5.424,29.278c-6.236,9.862-17.921,15.933-29.552,15.933c-2.368,0-4.732-0.252-7.049-0.773
		c-4.952-1.115-9.564-3.455-13.527-6.63c0.863,8.179,0.678,16.689-1.838,25.045c-4.28,14.201-17.392,28.414-34.271,28.414
		l-0.542-0.005c-10.391-0.188-20.767-5.841-28.469-15.511c-1.666-2.09-3.159-4.297-4.515-6.558
		c-0.089,0.673-0.124,1.342-0.237,2.017c-1.632,9.784-5.682,17.936-11.714,23.569c-6.268,5.852-14.773,8.822-23.507,8.822
		c-7.635,0-15.442-2.266-22.089-6.857c-11.095-7.665-18.341-20.858-19.991-35.829c-28.09-1.792-55.918-8.659-81.638-20.683
		c-4.624-2.156-6.622-7.651-4.468-12.273c2.157-4.622,7.651-6.622,12.275-4.466l0.226,0.11
		c52.18,26.095,116.14,29.053,171.054,7.422C738.869,646.5,784.26,600.526,805.17,544.654c-3.479-2.608-6.706-5.692-9.407-9.329
		c-2.881-3.868-5.14-8.377-6.411-13.224l-0.045-0.169c-0.854-3.245,1.087-6.569,4.334-7.421c3.247-0.852,6.571,1.088,7.422,4.335
		l0.137,0.663c0.988,6.749,4.952,13.197,10.608,18.219c5.647,5.04,12.8,8.779,20.4,10.829l0.038,0.01
		C834.1,549.068,835.2,550.979,834.699,552.836z M652.224,692.731c-17.383,3.949-35.231,5.857-53.097,5.688
		c1.628,10.549,6.916,19.892,14.483,25.12c9.391,6.485,22.561,6.125,29.995-0.817c5.067-4.73,7.106-11.589,7.928-16.51
		C652.259,701.876,652.339,697.312,652.224,692.731z M719.504,665.167c-9.651,6.002-19.765,11.294-30.281,15.749
		c-6.585,2.78-13.317,5.184-20.135,7.304c2.429,5.87,5.299,11.86,9.247,16.816c5.302,6.654,12.383,10.696,18.941,10.814
		c10.959,0.212,19.75-9.921,22.647-19.537C722.957,686.24,721.676,675.212,719.504,665.167z M771.85,620.268
		c-11.173,12.972-23.832,24.675-37.649,34.865c2.524,6.912,8.569,12.574,15.771,14.194c8.738,1.972,18.536-2.095,23.319-9.658
		c3.397-5.372,4.675-12.826,3.601-20.987C776.081,632.506,774.073,626.328,771.85,620.268z M639.28,513.462
		c0.535,36.048-6.834,72.359-21.658,105.639c-1.45,3.266-5.274,4.738-8.54,3.289c-3.266-1.451-4.738-5.274-3.289-8.542l0.134-0.285
		c10.291-20.42,17.618-42.431,21.73-65.1c-7.291,14.702-17.453,27.987-30.073,37.338c-9.026,8.077-19.142,14.971-30.024,20.347
		c-20.384,10.122-43.213,15.262-66.105,15.103c-3.977-0.021-7.186-3.261-7.163-7.238c0.019-3.977,3.26-7.184,7.237-7.163l0.3,0.006
		c17.05,0.796,34.329-1.734,50.542-7.42c-2.225-0.154-4.473-0.383-6.765-0.762c-45.02-7.427-74.183-46.878-83.034-89.211
		c-9.674-46.265,0.857-107.586,46.915-131.396c37.715-21.412,88.288-13.631,112.873,23.581
		C643.606,433.808,646.885,476.045,639.28,513.462z M620.269,536.333c15.124-35.852,16.365-81.926-0.035-117.511
		c-19.743-42.838-66.646-55.213-108.256-35.948c-14.812,7.798-25.525,20.217-32.805,34.75c2.978-3.902,6.52-7.327,10.7-10.115
		c25.601-17.074,63.916,3.462,78.934,30.32c15.018,26.858,10.567,62.272-7.794,86.966c-8.518,11.454-20.741,21.301-34.979,22.325
		c-17.848,1.283-33.981-11.668-43.34-26.917c-8.381-13.653-14.085-31.696-15.613-49.665c-0.085,6.679,0.262,13.275,1.106,19.6
		c5.232,39.191,23.767,76.009,61.918,91.876C569.966,598.596,604.841,572.905,620.269,536.333z M813.107,436.73l-0.096,0.134
		c-9.945,13.879-23.428,24.672-38.366,32.136c-14.571,7.222-30.758,11.357-47.152,11.177c-8.025,1.145-16.387,0.301-24.482-2.613
		c8.154,8.656,17.08,16.554,26.771,23.115c2.96,1.998,3.744,6.021,1.746,8.983c-1.998,2.964-6.023,3.746-8.986,1.748l-0.264-0.19
		c-11.612-8.715-21.809-18.904-30.811-29.978c-7.811-9.668-14.657-20.082-20.366-31.127c-10.109-17.512-12.849-39.456-10.326-59.412
		c3.545-28.05,19.169-70.978,50.685-77.841c29.424-6.304,51.396,27.173,59.617,50.883c9.877,28.483,8.383,64.208-6.685,90.74
		c-2.44,4.296-5.365,8.033-8.597,11.308c4.842-1.676,9.568-3.7,14.09-6.086c13.38-7.09,25.241-17.177,33.589-29.48
		c1.797-2.661,5.408-3.36,8.068-1.565C814.2,430.459,814.901,434.07,813.107,436.73z M750.137,455.687
		c16.094-20.521,19.82-51.809,15.552-76.832c-3.961-23.225-23.034-65.455-52.921-59.877c-20.251,4.14-32.489,25.849-38.977,45.842
		c5.392-6.683,12.38-12.056,20.141-14.999c19.097-7.24,32.812,7.35,38.188,24.305c5.105,16.103,2.16,33.688-5.43,48.507
		c-6.048,11.808-18.074,17.768-31.158,16.102c-12.177-1.551-21.305-9.909-26.794-20.74c1.26,7.793,3.557,15.343,7.075,22.308
		c0.256,0.274,0.53,0.529,0.715,0.873l0.016,0.032c1.344,2.509,2.795,4.961,4.276,7.396c1.604,2.249,3.329,4.428,5.267,6.475
		C703.429,473.409,733.571,476.809,750.137,455.687z M434.831,1003.893c-3.091-2.043-7.253-1.19-9.292,1.901
		c-2.043,3.093-1.192,7.253,1.899,9.295l0.131,0.084c13.094,8.647,29.887,9.338,43.114,2.532c2.062-1.071,3.043-3.558,2.176-5.769
		c-0.93-2.363-3.598-3.528-5.962-2.599l-0.064,0.024c-10.563,4.149-23.319,1.861-31.349-4.977L434.831,1003.893z M421.633,961.6
		c-3.327-1.627-7.345-0.247-8.97,3.083c-1.628,3.328-0.245,7.345,3.081,8.97l0.108,0.054c15.101,7.377,32.831,7.057,47.085-0.158
		c1.877-0.948,2.779-3.175,2.03-5.191c-0.806-2.165-3.215-3.266-5.379-2.46l-0.045,0.016c-12.405,4.619-26.789,2.871-37.193-3.908
		L421.633,961.6z M420.613,903.083c-2.189-1.133-4.926-0.44-6.297,1.673c-1.456,2.248-0.816,5.255,1.431,6.712
		c3.849,2.497,7.705,3.583,11.497,4.374c3.798,0.747,7.574,1.058,11.36,1.063c3.786-0.029,7.581-0.358,11.446-1.152
		c3.862-0.851,7.82-1.968,11.966-4.785l0.092-0.064l0.609-0.473c2.791-2.436,3.078-6.673,0.641-9.462
		c-2.435-2.79-6.673-3.077-9.461-0.641c-1.431,1.249-4.076,2.498-6.851,3.324c-2.811,0.852-5.863,1.413-8.941,1.711
		c-3.081,0.274-6.207,0.29-9.2-0.026c-2.967-0.307-5.892-1.004-7.95-2.078L420.613,903.083z M346.895,621.433
		c-3.496-1.22-7.323,0.625-8.543,4.122c-1.22,3.499,0.625,7.323,4.123,8.545l0.124,0.043c4.496,1.569,8.843,1.958,13.008,1.875
		c4.168-0.104,8.186-0.734,12.08-1.754c3.888-1.042,7.654-2.478,11.242-4.394c3.572-1.93,7.01-4.329,9.917-7.592
		c1.453-1.63,1.488-4.125,0.003-5.798c-1.6-1.802-4.359-1.965-6.16-0.365l-0.153,0.134c-4.378,3.889-10.837,6.217-17.163,7.206
		c-3.19,0.476-6.421,0.61-9.49,0.347c-3.059-0.258-5.988-0.95-8.24-2.055L346.895,621.433z M308.316,409.185
		c-2.361-0.758-4.958,0.397-5.949,2.726c-1.052,2.47,0.096,5.325,2.565,6.376c13.629,5.806,29.82,5.347,43.503-1.697l0.099-0.051
		l0.567-0.33c3.107-2.012,3.993-6.163,1.979-9.27c-2.011-3.107-6.163-3.993-9.27-1.98c-9.423,6.105-22.204,7.885-33.424,4.248
		L308.316,409.185z M357.452,656.954c-2.495-0.105-4.707,1.708-5.048,4.232c-0.363,2.678,1.514,5.143,4.194,5.505
		c14.18,1.918,28.972-0.076,42.407-5.9l0.064-0.027l0.539-0.264c3.247-1.775,4.439-5.846,2.664-9.093
		c-1.775-3.246-5.844-4.439-9.091-2.664c-10.675,5.835-23.192,8.776-35.677,8.213L357.452,656.954z M940.733,890.885
		c-11.29,25.955-34.667,37.99-57.551,52.367c-24.213,15.211-48.574,30.166-73.174,44.746
		c-64.239,38.073-129.496,74.403-193.568,112.759c-25.17,15.068-50.217,30.302-74.555,46.677
		c-21.232,4.374-39.528,3.26-59.959-4.123c-13.733-4.963-28.092-9.259-40.055-17.892c-29.386-21.207-41.469-56.006-42.713-90.843
		c-46.996-227.757-91.549-455.913-138.537-683.594c-9.359-48.241,31.653-88.683,65.984-115.393
		c11.919-9.274,23.931-18.431,35.896-27.646c31.236-24.056,62.472-48.112,93.708-72.167c25.817-19.882,51.634-39.765,77.452-59.647
		c11.706-9.014,23.398-18.676,37.547-23.563c6.677-2.305,43.514-7.663,36.817,10.357c-0.734,1.976-2.363,3.869-4.375,5.657
		c19.606,8.444,50.304,34.475,63.995,46.09c0.678,0.575,1.312,1.112,1.898,1.608L687,108.01l1.626,0.421
		c21.274,5.498,55.048,27.367,82.982,53.575c1.353-0.598,2.707-1.197,4.059-1.796c40.157,0.324,42.393,53.77,47.748,83.322
		c5.094,28.111,10.189,56.222,15.284,84.334c8.764,48.362,17.53,96.723,26.295,145.085c5.362,29.586,10.724,59.173,16.086,88.76
		c11.439,63.118,22.877,126.236,34.316,189.354c8.255,45.551,16.521,91.101,24.765,136.654
		C940.352,888.774,940.543,889.829,940.733,890.885z M594.949,74.919c-1.535,1.019-2.955,1.97-4.08,2.838
		c-8.692,6.701-17.378,13.41-26.067,20.115c-71.498,55.173-143.01,110.392-213.419,166.952
		c-18.438,14.812-43.124,30.464-51.222,53.649c-7.922,22.682,10.196,39.702,32.522,35.634c13.249-2.414,25.523-9.051,37.749-14.482
		c58.095-25.802,116.214-51.547,174.346-77.266c72.542-32.094,145.085-64.187,217.626-96.283
		c-25.274-23.071-55.484-42.689-74.513-48.245l-19.75,9.353l-2.271-1.895c-1.091-0.908-2.514-2.115-4.216-3.561
		c-13.104-11.117-47.907-40.643-65.175-45.987C595.903,75.564,595.392,75.276,594.949,74.919z M931.099,889.638
		c-6.825-37.659-13.65-75.317-20.475-112.976c-11.71-64.612-23.419-129.224-35.129-193.835
		c-5.099-28.137-60.113-331.694-61.811-341.063c-3.016-16.643-4.488-35.178-11.02-50.788c-4.381-10.469-13.156-20.776-25.232-21.422
		c-1.625,0.721-3.25,1.442-4.875,2.162c-0.049,0.022-0.095,0.044-0.145,0.064c-33.867,15.02-67.732,30.039-101.598,45.059
		c-58.002,25.724-116.005,51.449-174.007,77.172c-32.66,14.485-65.307,28.999-97.946,43.532
		c-9.483,4.222-18.967,8.443-28.449,12.667c-22.396,9.976-53.903,25.277-73.877,2.092c-19.312-22.416-0.983-53.188,17.405-69.376
		c8.339-7.341,17.09-14.261,25.707-21.267c80.936-65.811,163.871-129.253,246.453-192.98c3.473-2.68,6.949-5.357,10.425-8.034
		c-20.282-4.255-37.814,9.008-53.178,20.872c-10.708,8.269-21.424,16.53-32.136,24.795c-13.571,10.471-27.142,20.941-40.713,31.412
		c-38.065,29.368-76.13,58.736-114.194,88.105c-15.319,11.82-31.131,23.285-45.358,36.421
		c-22.834,21.085-46.629,53.495-39.849,86.542c41.6,191.909,81.468,384.187,122.527,576.212
		c5.828,27.257,11.68,54.509,17.565,81.753c3.029,14.024,5.573,26.52,6.154,40.714l-0.045-0.624
		c3.413,29.045,20.688,59.588,48.871,70.703c22.488,8.869,43.963,16.474,68.171,11.454
		c107.584-68.939,223.919-123.504,333.448-189.233C890.309,926.256,919.394,914.666,931.099,889.638z"/>
</g>
</svg>
